# xmcd
#
# Track frame offsets:
#	150
#	18671
#	39237
#	61649
#	75950
#	95333
#	118832
#	136777
#	154173
#	178287
#
# Disc length: 2576 seconds
#
# Revision: 0
# Processed by: cddbd v1.5.1PL2 Copyright (c) Steve Scherf et al.
# Submitted via: audiograbber 1.83.01
#
DISCID=730a0e0a
DTITLE=Pasión Vega - Grandes éxitos
DYEAR=2003
DGENRE=Pop
TTITLE0=El día que nací yo
TTITLE1=En mi voz
TTITLE2=El día que me quieras
TTITLE3=Con el alma en los labios
TTITLE4=No habrá segunda parte
TTITLE5=Ojos verdes
TTITLE6=Tientos del remordimiento
TTITLE7=Vamos a dejarnos
TTITLE8=Tatuaje
TTITLE9=Nana para un rey
EXTD=
EXTT0=
EXTT1=
EXTT2=
EXTT3=
EXTT4=
EXTT5=
EXTT6=
EXTT7=
EXTT8=
EXTT9=
PLAYORDER=
